<?xml version="1.0" standalone="no"?>
<!DOCTYPE svg PUBLIC "-//W3C//DTD SVG 20010904//EN"
 "http://www.w3.org/TR/2001/REC-SVG-20010904/DTD/svg10.dtd">
<svg version="1.0" xmlns="http://www.w3.org/2000/svg"
 width="2000.000000pt" height="2000.000000pt" viewBox="0 0 2000.000000 2000.000000"
 preserveAspectRatio="xMidYMid meet">
<metadata>
Created by potrace 1.14, written by Peter Selinger 2001-2017
</metadata>
<g transform="translate(0.000000,2000.000000) scale(0.100000,-0.100000)"
fill="#000000" stroke="none">
<path d="M13429 16887 c-34 -18 -51 -36 -74 -82 -29 -56 -30 -64 -30 -184 0
-115 2 -131 26 -182 35 -73 75 -102 151 -107 72 -5 109 9 152 60 46 53 61 113
60 238 0 113 -19 176 -67 229 -51 55 -144 67 -218 28z m125 -73 c26 -10 19
-35 -48 -170 l-65 -129 0 108 c-1 114 12 166 46 186 21 12 44 14 67 5z m36
-314 c-6 -25 -19 -53 -27 -62 -17 -19 -78 -25 -88 -9 -3 6 23 67 57 136 l63
126 3 -73 c2 -40 -2 -93 -8 -118z"/>
<path d="M12689 16157 c-34 -18 -51 -36 -74 -82 -29 -56 -30 -64 -30 -184 0
-115 2 -131 26 -182 35 -73 75 -102 151 -107 72 -5 109 9 152 60 46 53 61 113
60 238 0 113 -19 176 -67 229 -51 55 -144 67 -218 28z m125 -73 c26 -10 19
-35 -48 -170 l-65 -129 0 108 c-1 114 12 166 46 186 21 12 44 14 67 5z m36
-314 c-6 -25 -19 -53 -27 -62 -17 -19 -78 -25 -88 -9 -3 6 23 67 57 136 l63
126 3 -73 c2 -40 -2 -93 -8 -118z"/>
<path d="M13429 16157 c-34 -18 -51 -36 -74 -82 -29 -56 -30 -64 -30 -184 0
-115 2 -131 26 -182 35 -73 75 -102 151 -107 72 -5 109 9 152 60 46 53 61 113
60 238 0 113 -19 176 -67 229 -51 55 -144 67 -218 28z m125 -73 c26 -10 19
-35 -48 -170 l-65 -129 0 108 c-1 114 12 166 46 186 21 12 44 14 67 5z m36
-314 c-6 -25 -19 -53 -27 -62 -17 -19 -78 -25 -88 -9 -3 6 23 67 57 136 l63
126 3 -73 c2 -40 -2 -93 -8 -118z"/>
<path d="M14174 16161 c-79 -36 -114 -118 -114 -271 0 -195 64 -290 195 -290
133 0 200 99 199 295 -1 154 -38 233 -126 270 -49 20 -104 19 -154 -4z m121
-85 c18 -13 16 -20 -46 -151 l-64 -138 -9 42 c-14 66 6 206 35 237 25 27 56
31 84 10z m40 -252 c-9 -94 -32 -134 -79 -134 -19 0 -37 4 -40 9 -3 5 22 67
56 137 58 120 63 127 66 94 2 -19 1 -67 -3 -106z"/>
<path d="M12689 15417 c-34 -18 -51 -36 -74 -82 -29 -56 -30 -64 -30 -184 0
-115 2 -131 26 -182 35 -73 75 -102 151 -107 72 -5 109 9 152 60 46 53 61 113
60 238 0 113 -19 176 -67 229 -51 55 -144 67 -218 28z m125 -73 c26 -10 19
-35 -48 -170 l-65 -129 0 108 c-1 114 12 166 46 186 21 12 44 14 67 5z m36
-314 c-6 -25 -19 -53 -27 -62 -17 -19 -78 -25 -88 -9 -3 6 23 67 57 136 l63
126 3 -73 c2 -40 -2 -93 -8 -118z"/>
<path d="M13429 15417 c-34 -18 -51 -36 -74 -82 -29 -56 -30 -64 -30 -184 0
-115 2 -131 26 -182 35 -73 75 -102 151 -107 72 -5 109 9 152 60 46 53 61 113
60 238 0 113 -19 176 -67 229 -51 55 -144 67 -218 28z m125 -73 c26 -10 19
-35 -48 -170 l-65 -129 0 108 c-1 114 12 166 46 186 21 12 44 14 67 5z m36
-314 c-6 -25 -19 -53 -27 -62 -17 -19 -78 -25 -88 -9 -3 6 23 67 57 136 l63
126 3 -73 c2 -40 -2 -93 -8 -118z"/>
<path d="M14174 15421 c-79 -36 -114 -118 -114 -271 0 -195 64 -290 195 -290
133 0 200 99 199 295 -1 154 -38 233 -126 270 -49 20 -104 19 -154 -4z m121
-85 c18 -13 16 -20 -46 -151 l-64 -138 -9 42 c-14 66 6 206 35 237 25 27 56
31 84 10z m40 -252 c-9 -94 -32 -134 -79 -134 -19 0 -37 4 -40 9 -3 5 22 67
56 137 58 120 63 127 66 94 2 -19 1 -67 -3 -106z"/>
<path d="M14914 15421 c-79 -36 -114 -118 -114 -271 0 -195 64 -290 195 -290
133 0 200 99 199 295 -1 154 -38 233 -126 270 -49 20 -104 19 -154 -4z m121
-85 c18 -13 16 -20 -46 -151 l-64 -138 -9 42 c-14 66 6 206 35 237 25 27 56
31 84 10z m40 -252 c-9 -94 -32 -134 -79 -134 -19 0 -37 4 -40 9 -3 5 22 67
56 137 58 120 63 127 66 94 2 -19 1 -67 -3 -106z"/>
<path d="M11946 15380 c-44 -28 -84 -54 -90 -60 -6 -6 0 -24 17 -49 l27 -41
55 35 55 36 0 -166 0 -165 -65 0 -65 0 0 -50 0 -50 180 0 180 0 0 50 0 50 -50
0 -50 0 -2 228 -3 227 -55 2 c-51 3 -61 -1 -134 -47z"/>
<path d="M11949 14687 c-34 -18 -51 -36 -74 -82 -29 -56 -30 -64 -30 -184 0
-115 2 -131 26 -182 35 -73 75 -102 151 -107 72 -5 109 9 152 60 46 53 61 113
60 238 0 113 -19 176 -67 229 -51 55 -144 67 -218 28z m125 -73 c26 -10 19
-35 -48 -170 l-65 -129 0 108 c-1 114 12 166 46 186 21 12 44 14 67 5z m36
-314 c-6 -25 -19 -53 -27 -62 -17 -19 -78 -25 -88 -9 -3 6 23 67 57 136 l63
126 3 -73 c2 -40 -2 -93 -8 -118z"/>
<path d="M13429 14687 c-34 -18 -51 -36 -74 -82 -29 -56 -30 -64 -30 -184 0
-115 2 -131 26 -182 35 -73 75 -102 151 -107 72 -5 109 9 152 60 46 53 61 113
60 238 0 113 -19 176 -67 229 -51 55 -144 67 -218 28z m125 -73 c26 -10 19
-35 -48 -170 l-65 -129 0 108 c-1 114 12 166 46 186 21 12 44 14 67 5z m36
-314 c-6 -25 -19 -53 -27 -62 -17 -19 -78 -25 -88 -9 -3 6 23 67 57 136 l63
126 3 -73 c2 -40 -2 -93 -8 -118z"/>
<path d="M14174 14691 c-79 -36 -114 -118 -114 -271 0 -195 64 -290 195 -290
133 0 200 99 199 295 -1 154 -38 233 -126 270 -49 20 -104 19 -154 -4z m121
-85 c18 -13 16 -20 -46 -151 l-64 -138 -9 42 c-14 66 6 206 35 237 25 27 56
31 84 10z m40 -252 c-9 -94 -32 -134 -79 -134 -19 0 -37 4 -40 9 -3 5 22 67
56 137 58 120 63 127 66 94 2 -19 1 -67 -3 -106z"/>
<path d="M14914 14691 c-79 -36 -114 -118 -114 -271 0 -195 64 -290 195 -290
133 0 200 99 199 295 -1 154 -38 233 -126 270 -49 20 -104 19 -154 -4z m121
-85 c18 -13 16 -20 -46 -151 l-64 -138 -9 42 c-14 66 6 206 35 237 25 27 56
31 84 10z m40 -252 c-9 -94 -32 -134 -79 -134 -19 0 -37 4 -40 9 -3 5 22 67
56 137 58 120 63 127 66 94 2 -19 1 -67 -3 -106z"/>
<path d="M15655 14694 c-69 -36 -100 -88 -117 -199 -9 -57 -9 -93 0 -150 23
-148 83 -215 192 -215 97 0 151 43 185 147 13 41 16 78 13 165 -3 102 -6 118
-33 168 -23 42 -40 60 -75 78 -52 26 -122 29 -165 6z m120 -88 c18 -13 15 -20
-48 -150 -36 -75 -69 -136 -73 -136 -14 0 3 225 19 257 23 44 65 56 102 29z
m30 -314 c-3 -18 -15 -42 -26 -53 -21 -21 -74 -26 -85 -8 -4 7 20 66 52 131
l59 120 3 -79 c2 -43 0 -93 -3 -111z"/>
<path d="M11203 14647 c-45 -29 -84 -55 -88 -59 -4 -3 6 -24 20 -47 l27 -40
54 34 c30 19 57 35 59 35 3 0 5 -74 5 -165 l0 -165 -70 0 -70 0 0 -50 0 -50
180 0 180 0 0 50 0 50 -50 0 -50 0 0 230 0 230 -57 -1 c-52 0 -66 -6 -140 -52z"/>
<path d="M12686 14650 c-44 -28 -84 -54 -90 -60 -6 -6 0 -24 17 -49 l27 -41
55 35 55 36 0 -166 0 -165 -65 0 -65 0 0 -50 0 -50 180 0 180 0 0 50 0 50 -50
0 -50 0 -2 228 -3 227 -55 2 c-51 3 -61 -1 -134 -47z"/>
<path d="M11221 13952 c-101 -51 -149 -230 -106 -397 21 -78 46 -116 95 -144
34 -19 53 -23 104 -19 79 5 116 30 153 106 26 53 28 66 28 177 0 135 -11 178
-58 232 -55 63 -146 82 -216 45z m123 -85 c15 -11 11 -23 -51 -152 l-68 -140
-3 85 c-4 105 12 184 41 205 26 18 57 19 81 2z m26 -316 c-6 -22 -17 -47 -26
-56 -15 -14 -75 -21 -86 -9 -3 3 22 64 56 135 l61 131 3 -81 c2 -45 -2 -99 -8
-120z"/>
<path d="M12689 13947 c-34 -18 -51 -36 -74 -82 -29 -56 -30 -64 -30 -184 0
-115 2 -131 26 -182 35 -73 75 -102 151 -107 72 -5 109 9 152 60 46 53 61 113
60 238 0 113 -19 176 -67 229 -51 55 -144 67 -218 28z m125 -73 c26 -10 19
-35 -48 -170 l-65 -129 0 108 c-1 114 12 166 46 186 21 12 44 14 67 5z m36
-314 c-6 -25 -19 -53 -27 -62 -17 -19 -78 -25 -88 -9 -3 6 23 67 57 136 l63
126 3 -73 c2 -40 -2 -93 -8 -118z"/>
<path d="M14174 13951 c-79 -36 -114 -118 -114 -271 0 -195 64 -290 195 -290
133 0 200 99 199 295 -1 154 -38 233 -126 270 -49 20 -104 19 -154 -4z m121
-85 c18 -13 16 -20 -46 -151 l-64 -138 -9 42 c-14 66 6 206 35 237 25 27 56
31 84 10z m40 -252 c-9 -94 -32 -134 -79 -134 -19 0 -37 4 -40 9 -3 5 22 67
56 137 58 120 63 127 66 94 2 -19 1 -67 -3 -106z"/>
<path d="M14914 13951 c-79 -36 -114 -118 -114 -271 0 -195 64 -290 195 -290
133 0 200 99 199 295 -1 154 -38 233 -126 270 -49 20 -104 19 -154 -4z m121
-85 c18 -13 16 -20 -46 -151 l-64 -138 -9 42 c-14 66 6 206 35 237 25 27 56
31 84 10z m40 -252 c-9 -94 -32 -134 -79 -134 -19 0 -37 4 -40 9 -3 5 22 67
56 137 58 120 63 127 66 94 2 -19 1 -67 -3 -106z"/>
<path d="M15655 13954 c-69 -36 -100 -88 -117 -199 -9 -57 -9 -93 0 -150 23
-148 83 -215 192 -215 97 0 151 43 185 147 13 41 16 78 13 165 -3 102 -6 118
-33 168 -23 42 -40 60 -75 78 -52 26 -122 29 -165 6z m120 -88 c18 -13 15 -20
-48 -150 -36 -75 -69 -136 -73 -136 -14 0 3 225 19 257 23 44 65 56 102 29z
m30 -314 c-3 -18 -15 -42 -26 -53 -21 -21 -74 -26 -85 -8 -4 7 20 66 52 131
l59 120 3 -79 c2 -43 0 -93 -3 -111z"/>
<path d="M16395 13954 c-69 -36 -100 -88 -117 -199 -9 -57 -9 -93 0 -150 23
-148 83 -215 192 -215 97 0 151 43 185 147 13 41 16 78 13 165 -3 102 -6 118
-33 168 -23 42 -40 60 -75 78 -52 26 -122 29 -165 6z m120 -88 c18 -13 15 -20
-48 -150 -36 -75 -69 -136 -73 -136 -14 0 3 225 19 257 23 44 65 56 102 29z
m30 -314 c-3 -18 -15 -42 -26 -53 -21 -21 -74 -26 -85 -8 -4 7 20 66 52 131
l59 120 3 -79 c2 -43 0 -93 -3 -111z"/>
<path d="M10463 13907 c-45 -29 -84 -55 -88 -59 -4 -3 6 -24 20 -47 l27 -40
54 34 c30 19 57 35 59 35 3 0 5 -74 5 -165 l0 -165 -70 0 -70 0 0 -50 0 -50
180 0 180 0 0 50 0 50 -50 0 -50 0 0 230 0 230 -57 -1 c-52 0 -66 -6 -140 -52z"/>
<path d="M11946 13910 c-44 -28 -84 -54 -90 -60 -6 -6 0 -24 17 -49 l27 -41
55 35 55 36 0 -166 0 -165 -65 0 -65 0 0 -50 0 -50 180 0 180 0 0 50 0 50 -50
0 -50 0 -2 228 -3 227 -55 2 c-51 3 -61 -1 -134 -47z"/>
<path d="M13426 13910 c-44 -28 -84 -54 -90 -60 -6 -6 0 -24 17 -49 l27 -41
55 35 55 36 0 -166 0 -165 -65 0 -65 0 0 -50 0 -50 180 0 180 0 0 50 0 50 -50
0 -50 0 -2 228 -3 227 -55 2 c-51 3 -61 -1 -134 -47z"/>
<path d="M10481 13222 c-101 -51 -149 -230 -106 -397 21 -78 46 -116 95 -144
34 -19 53 -23 104 -19 79 5 116 30 153 106 26 53 28 66 28 177 0 135 -11 178
-58 232 -55 63 -146 82 -216 45z m123 -85 c15 -11 11 -23 -51 -152 l-68 -140
-3 85 c-4 105 12 184 41 205 26 18 57 19 81 2z m26 -316 c-6 -22 -17 -47 -26
-56 -15 -14 -75 -21 -86 -9 -3 3 22 64 56 135 l61 131 3 -81 c2 -45 -2 -99 -8
-120z"/>
<path d="M11949 13217 c-34 -18 -51 -36 -74 -82 -29 -56 -30 -64 -30 -184 0
-115 2 -131 26 -182 35 -73 75 -102 151 -107 72 -5 109 9 152 60 46 53 61 113
60 238 0 113 -19 176 -67 229 -51 55 -144 67 -218 28z m125 -73 c26 -10 19
-35 -48 -170 l-65 -129 0 108 c-1 114 12 166 46 186 21 12 44 14 67 5z m36
-314 c-6 -25 -19 -53 -27 -62 -17 -19 -78 -25 -88 -9 -3 6 23 67 57 136 l63
126 3 -73 c2 -40 -2 -93 -8 -118z"/>
<path d="M13429 13217 c-34 -18 -51 -36 -74 -82 -29 -56 -30 -64 -30 -184 0
-115 2 -131 26 -182 35 -73 75 -102 151 -107 72 -5 109 9 152 60 46 53 61 113
60 238 0 113 -19 176 -67 229 -51 55 -144 67 -218 28z m125 -73 c26 -10 19
-35 -48 -170 l-65 -129 0 108 c-1 114 12 166 46 186 21 12 44 14 67 5z m36
-314 c-6 -25 -19 -53 -27 -62 -17 -19 -78 -25 -88 -9 -3 6 23 67 57 136 l63
126 3 -73 c2 -40 -2 -93 -8 -118z"/>
<path d="M14914 13221 c-79 -36 -114 -118 -114 -271 0 -195 64 -290 195 -290
133 0 200 99 199 295 -1 154 -38 233 -126 270 -49 20 -104 19 -154 -4z m121
-85 c18 -13 16 -20 -46 -151 l-64 -138 -9 42 c-14 66 6 206 35 237 25 27 56
31 84 10z m40 -252 c-9 -94 -32 -134 -79 -134 -19 0 -37 4 -40 9 -3 5 22 67
56 137 58 120 63 127 66 94 2 -19 1 -67 -3 -106z"/>
<path d="M15655 13224 c-69 -36 -100 -88 -117 -199 -9 -57 -9 -93 0 -150 23
-148 83 -215 192 -215 97 0 151 43 185 147 13 41 16 78 13 165 -3 102 -6 118
-33 168 -23 42 -40 60 -75 78 -52 26 -122 29 -165 6z m120 -88 c18 -13 15 -20
-48 -150 -36 -75 -69 -136 -73 -136 -14 0 3 225 19 257 23 44 65 56 102 29z
m30 -314 c-3 -18 -15 -42 -26 -53 -21 -21 -74 -26 -85 -8 -4 7 20 66 52 131
l59 120 3 -79 c2 -43 0 -93 -3 -111z"/>
<path d="M9722 13174 c-89 -54 -93 -57 -79 -77 8 -12 19 -32 26 -45 12 -23 13
-23 38 -6 15 9 41 25 60 36 l33 20 0 -166 0 -165 -67 -3 -68 -3 -3 -47 -3 -48
180 0 181 0 0 50 0 50 -50 0 -50 0 0 230 0 230 -52 0 c-46 0 -65 -7 -146 -56z"/>
<path d="M11203 13177 c-45 -29 -84 -55 -88 -59 -4 -3 6 -24 20 -47 l27 -40
54 34 c30 19 57 35 59 35 3 0 5 -74 5 -165 l0 -165 -70 0 -70 0 0 -50 0 -50
180 0 180 0 0 50 0 50 -50 0 -50 0 0 230 0 230 -57 -1 c-52 0 -66 -6 -140 -52z"/>
<path d="M12686 13180 c-44 -28 -84 -54 -90 -60 -6 -6 0 -24 17 -49 l27 -41
55 35 55 36 0 -166 0 -165 -65 0 -65 0 0 -50 0 -50 180 0 180 0 0 50 0 50 -50
0 -50 0 -2 228 -3 227 -55 2 c-51 3 -61 -1 -134 -47z"/>
<path d="M14153 13174 l-92 -56 27 -43 26 -44 36 21 c19 12 45 28 58 36 l22
14 0 -166 0 -166 -65 0 -65 0 0 -50 0 -50 181 0 180 0 -3 48 -3 47 -52 3 -53
3 0 230 0 229 -52 0 c-46 -1 -65 -8 -145 -56z"/>
<path d="M9745 12484 c-69 -36 -100 -88 -117 -199 -9 -57 -9 -93 0 -150 23
-148 83 -215 192 -215 97 0 151 43 185 147 13 41 16 78 13 165 -3 102 -6 118
-33 168 -23 42 -40 60 -75 78 -52 26 -122 29 -165 6z m120 -88 c18 -13 15 -20
-48 -150 -36 -75 -69 -136 -73 -136 -14 0 3 225 19 257 23 44 65 56 102 29z
m30 -314 c-3 -18 -15 -42 -26 -53 -21 -21 -74 -26 -85 -8 -4 7 20 66 52 131
l59 120 3 -79 c2 -43 0 -93 -3 -111z"/>
<path d="M11221 12482 c-101 -51 -149 -230 -106 -397 21 -78 46 -116 95 -144
34 -19 53 -23 104 -19 79 5 116 30 153 106 26 53 28 66 28 177 0 135 -11 178
-58 232 -55 63 -146 82 -216 45z m123 -85 c15 -11 11 -23 -51 -152 l-68 -140
-3 85 c-4 105 12 184 41 205 26 18 57 19 81 2z m26 -316 c-6 -22 -17 -47 -26
-56 -15 -14 -75 -21 -86 -9 -3 3 22 64 56 135 l61 131 3 -81 c2 -45 -2 -99 -8
-120z"/>
<path d="M12689 12477 c-34 -18 -51 -36 -74 -82 -29 -56 -30 -64 -30 -184 0
-115 2 -131 26 -182 35 -73 75 -102 151 -107 72 -5 109 9 152 60 46 53 61 113
60 238 0 113 -19 176 -67 229 -51 55 -144 67 -218 28z m125 -73 c26 -10 19
-35 -48 -170 l-65 -129 0 108 c-1 114 12 166 46 186 21 12 44 14 67 5z m36
-314 c-6 -25 -19 -53 -27 -62 -17 -19 -78 -25 -88 -9 -3 6 23 67 57 136 l63
126 3 -73 c2 -40 -2 -93 -8 -118z"/>
<path d="M14174 12481 c-79 -36 -114 -118 -114 -271 0 -195 64 -290 195 -290
133 0 200 99 199 295 -1 154 -38 233 -126 270 -49 20 -104 19 -154 -4z m121
-85 c18 -13 16 -20 -46 -151 l-64 -138 -9 42 c-14 66 6 206 35 237 25 27 56
31 84 10z m40 -252 c-9 -94 -32 -134 -79 -134 -19 0 -37 4 -40 9 -3 5 22 67
56 137 58 120 63 127 66 94 2 -19 1 -67 -3 -106z"/>
<path d="M8982 12434 c-89 -54 -93 -57 -79 -77 8 -12 19 -32 26 -45 12 -23 13
-23 38 -6 15 9 41 25 60 36 l33 20 0 -166 0 -165 -67 -3 -68 -3 -3 -47 -3 -48
180 0 181 0 0 50 0 50 -50 0 -50 0 0 230 0 230 -52 0 c-46 0 -65 -7 -146 -56z"/>
<path d="M10463 12437 c-45 -29 -84 -55 -88 -59 -4 -3 6 -24 20 -47 l27 -40
54 34 c30 19 57 35 59 35 3 0 5 -74 5 -165 l0 -165 -70 0 -70 0 0 -50 0 -50
180 0 180 0 0 50 0 50 -50 0 -50 0 0 230 0 230 -57 -1 c-52 0 -66 -6 -140 -52z"/>
<path d="M11946 12440 c-44 -28 -84 -54 -90 -60 -6 -6 0 -24 17 -49 l27 -41
55 35 55 36 0 -166 0 -165 -65 0 -65 0 0 -50 0 -50 180 0 180 0 0 50 0 50 -50
0 -50 0 -2 228 -3 227 -55 2 c-51 3 -61 -1 -134 -47z"/>
<path d="M13426 12440 c-44 -28 -84 -54 -90 -60 -6 -6 0 -24 17 -49 l27 -41
55 35 55 36 0 -166 0 -165 -65 0 -65 0 0 -50 0 -50 180 0 180 0 0 50 0 50 -50
0 -50 0 -2 228 -3 227 -55 2 c-51 3 -61 -1 -134 -47z"/>
<path d="M14893 12434 l-92 -56 27 -43 26 -44 36 21 c19 12 45 28 58 36 l22
14 0 -166 0 -166 -65 0 -65 0 0 -50 0 -50 181 0 180 0 -3 48 -3 47 -52 3 -53
3 0 230 0 229 -52 0 c-46 -1 -65 -8 -145 -56z"/>
<path d="M9005 11754 c-69 -36 -100 -88 -117 -199 -9 -57 -9 -93 0 -150 23
-148 83 -215 192 -215 97 0 151 43 185 147 13 41 16 78 13 165 -3 102 -6 118
-33 168 -23 42 -40 60 -75 78 -52 26 -122 29 -165 6z m120 -88 c18 -13 15 -20
-48 -150 -36 -75 -69 -136 -73 -136 -14 0 3 225 19 257 23 44 65 56 102 29z
m30 -314 c-3 -18 -15 -42 -26 -53 -21 -21 -74 -26 -85 -8 -4 7 20 66 52 131
l59 120 3 -79 c2 -43 0 -93 -3 -111z"/>
<path d="M10481 11752 c-101 -51 -149 -230 -106 -397 21 -78 46 -116 95 -144
34 -19 53 -23 104 -19 79 5 116 30 153 106 26 53 28 66 28 177 0 135 -11 178
-58 232 -55 63 -146 82 -216 45z m123 -85 c15 -11 11 -23 -51 -152 l-68 -140
-3 85 c-4 105 12 184 41 205 26 18 57 19 81 2z m26 -316 c-6 -22 -17 -47 -26
-56 -15 -14 -75 -21 -86 -9 -3 3 22 64 56 135 l61 131 3 -81 c2 -45 -2 -99 -8
-120z"/>
<path d="M11949 11747 c-34 -18 -51 -36 -74 -82 -29 -56 -30 -64 -30 -184 0
-115 2 -131 26 -182 35 -73 75 -102 151 -107 72 -5 109 9 152 60 46 53 61 113
60 238 0 113 -19 176 -67 229 -51 55 -144 67 -218 28z m125 -73 c26 -10 19
-35 -48 -170 l-65 -129 0 108 c-1 114 12 166 46 186 21 12 44 14 67 5z m36
-314 c-6 -25 -19 -53 -27 -62 -17 -19 -78 -25 -88 -9 -3 6 23 67 57 136 l63
126 3 -73 c2 -40 -2 -93 -8 -118z"/>
<path d="M13429 11747 c-34 -18 -51 -36 -74 -82 -29 -56 -30 -64 -30 -184 0
-115 2 -131 26 -182 35 -73 75 -102 151 -107 72 -5 109 9 152 60 46 53 61 113
60 238 0 113 -19 176 -67 229 -51 55 -144 67 -218 28z m125 -73 c26 -10 19
-35 -48 -170 l-65 -129 0 108 c-1 114 12 166 46 186 21 12 44 14 67 5z m36
-314 c-6 -25 -19 -53 -27 -62 -17 -19 -78 -25 -88 -9 -3 6 23 67 57 136 l63
126 3 -73 c2 -40 -2 -93 -8 -118z"/>
<path d="M8242 11704 c-89 -54 -93 -57 -79 -77 8 -12 19 -32 26 -45 12 -23 13
-23 38 -6 15 9 41 25 60 36 l33 20 0 -166 0 -165 -67 -3 -68 -3 -3 -47 -3 -48
180 0 181 0 0 50 0 50 -50 0 -50 0 0 230 0 230 -52 0 c-46 0 -65 -7 -146 -56z"/>
<path d="M9722 11704 c-89 -54 -93 -57 -79 -77 8 -12 19 -32 26 -45 12 -23 13
-23 38 -6 15 9 41 25 60 36 l33 20 0 -166 0 -165 -67 -3 -68 -3 -3 -47 -3 -48
180 0 181 0 0 50 0 50 -50 0 -50 0 0 230 0 230 -52 0 c-46 0 -65 -7 -146 -56z"/>
<path d="M11203 11707 c-45 -29 -84 -55 -88 -59 -4 -3 6 -24 20 -47 l27 -40
54 34 c30 19 57 35 59 35 3 0 5 -74 5 -165 l0 -165 -70 0 -70 0 0 -50 0 -50
180 0 180 0 0 50 0 50 -50 0 -50 0 0 230 0 230 -57 -1 c-52 0 -66 -6 -140 -52z"/>
<path d="M12686 11710 c-44 -28 -84 -54 -90 -60 -6 -6 0 -24 17 -49 l27 -41
55 35 55 36 0 -166 0 -165 -65 0 -65 0 0 -50 0 -50 180 0 180 0 0 50 0 50 -50
0 -50 0 -2 228 -3 227 -55 2 c-51 3 -61 -1 -134 -47z"/>
<path d="M14153 11704 l-92 -56 27 -43 26 -44 36 21 c19 12 45 28 58 36 l22
14 0 -166 0 -166 -65 0 -65 0 0 -50 0 -50 181 0 180 0 -3 48 -3 47 -52 3 -53
3 0 230 0 229 -52 0 c-46 -1 -65 -8 -145 -56z"/>
<path d="M8265 11014 c-69 -36 -100 -88 -117 -199 -9 -57 -9 -93 0 -150 23
-148 83 -215 192 -215 97 0 151 43 185 147 13 41 16 78 13 165 -3 102 -6 118
-33 168 -23 42 -40 60 -75 78 -52 26 -122 29 -165 6z m120 -88 c18 -13 15 -20
-48 -150 -36 -75 -69 -136 -73 -136 -14 0 3 225 19 257 23 44 65 56 102 29z
m30 -314 c-3 -18 -15 -42 -26 -53 -21 -21 -74 -26 -85 -8 -4 7 20 66 52 131
l59 120 3 -79 c2 -43 0 -93 -3 -111z"/>
<path d="M9745 11014 c-69 -36 -100 -88 -117 -199 -9 -57 -9 -93 0 -150 23
-148 83 -215 192 -215 97 0 151 43 185 147 13 41 16 78 13 165 -3 102 -6 118
-33 168 -23 42 -40 60 -75 78 -52 26 -122 29 -165 6z m120 -88 c18 -13 15 -20
-48 -150 -36 -75 -69 -136 -73 -136 -14 0 3 225 19 257 23 44 65 56 102 29z
m30 -314 c-3 -18 -15 -42 -26 -53 -21 -21 -74 -26 -85 -8 -4 7 20 66 52 131
l59 120 3 -79 c2 -43 0 -93 -3 -111z"/>
<path d="M11221 11012 c-101 -51 -149 -230 -106 -397 21 -78 46 -116 95 -144
34 -19 53 -23 104 -19 79 5 116 30 153 106 26 53 28 66 28 177 0 135 -11 178
-58 232 -55 63 -146 82 -216 45z m123 -85 c15 -11 11 -23 -51 -152 l-68 -140
-3 85 c-4 105 12 184 41 205 26 18 57 19 81 2z m26 -316 c-6 -22 -17 -47 -26
-56 -15 -14 -75 -21 -86 -9 -3 3 22 64 56 135 l61 131 3 -81 c2 -45 -2 -99 -8
-120z"/>
<path d="M12689 11007 c-34 -18 -51 -36 -74 -82 -29 -56 -30 -64 -30 -184 0
-115 2 -131 26 -182 35 -73 75 -102 151 -107 72 -5 109 9 152 60 46 53 61 113
60 238 0 113 -19 176 -67 229 -51 55 -144 67 -218 28z m125 -73 c26 -10 19
-35 -48 -170 l-65 -129 0 108 c-1 114 12 166 46 186 21 12 44 14 67 5z m36
-314 c-6 -25 -19 -53 -27 -62 -17 -19 -78 -25 -88 -9 -3 6 23 67 57 136 l63
126 3 -73 c2 -40 -2 -93 -8 -118z"/>
<path d="M7503 10964 l-92 -56 27 -43 26 -44 36 21 c19 12 45 28 58 36 l22 14
0 -166 0 -166 -65 0 -65 0 0 -50 0 -50 181 0 180 0 -3 48 -3 47 -52 3 -53 3 0
230 0 229 -52 0 c-46 -1 -65 -8 -145 -56z"/>
<path d="M8982 10964 c-89 -54 -93 -57 -79 -77 8 -12 19 -32 26 -45 12 -23 13
-23 38 -6 15 9 41 25 60 36 l33 20 0 -166 0 -165 -67 -3 -68 -3 -3 -47 -3 -48
180 0 181 0 0 50 0 50 -50 0 -50 0 0 230 0 230 -52 0 c-46 0 -65 -7 -146 -56z"/>
<path d="M10463 10967 c-45 -29 -84 -55 -88 -59 -4 -3 6 -24 20 -47 l27 -40
54 34 c30 19 57 35 59 35 3 0 5 -74 5 -165 l0 -165 -70 0 -70 0 0 -50 0 -50
180 0 180 0 0 50 0 50 -50 0 -50 0 0 230 0 230 -57 -1 c-52 0 -66 -6 -140 -52z"/>
<path d="M11946 10970 c-44 -28 -84 -54 -90 -60 -6 -6 0 -24 17 -49 l27 -41
55 35 55 36 0 -166 0 -165 -65 0 -65 0 0 -50 0 -50 180 0 180 0 0 50 0 50 -50
0 -50 0 -2 228 -3 227 -55 2 c-51 3 -61 -1 -134 -47z"/>
<path d="M13413 10964 l-92 -56 27 -43 26 -44 36 21 c19 12 45 28 58 36 l22
14 0 -166 0 -166 -65 0 -65 0 0 -50 0 -50 181 0 180 0 -3 48 -3 47 -52 3 -53
3 0 230 0 229 -52 0 c-46 -1 -65 -8 -145 -56z"/>
<path d="M7524 10281 c-79 -36 -114 -118 -114 -271 0 -195 64 -290 195 -290
133 0 200 99 199 295 -1 154 -38 233 -126 270 -49 20 -104 19 -154 -4z m121
-85 c18 -13 16 -20 -46 -151 l-64 -138 -9 42 c-14 66 6 206 35 237 25 27 56
31 84 10z m40 -252 c-9 -94 -32 -134 -79 -134 -19 0 -37 4 -40 9 -3 5 22 67
56 137 58 120 63 127 66 94 2 -19 1 -67 -3 -106z"/>
<path d="M9005 10284 c-69 -36 -100 -88 -117 -199 -9 -57 -9 -93 0 -150 23
-148 83 -215 192 -215 97 0 151 43 185 147 13 41 16 78 13 165 -3 102 -6 118
-33 168 -23 42 -40 60 -75 78 -52 26 -122 29 -165 6z m120 -88 c18 -13 15 -20
-48 -150 -36 -75 -69 -136 -73 -136 -14 0 3 225 19 257 23 44 65 56 102 29z
m30 -314 c-3 -18 -15 -42 -26 -53 -21 -21 -74 -26 -85 -8 -4 7 20 66 52 131
l59 120 3 -79 c2 -43 0 -93 -3 -111z"/>
<path d="M10481 10282 c-101 -51 -149 -230 -106 -397 21 -78 46 -116 95 -144
34 -19 53 -23 104 -19 79 5 116 30 153 106 26 53 28 66 28 177 0 135 -11 178
-58 232 -55 63 -146 82 -216 45z m123 -85 c15 -11 11 -23 -51 -152 l-68 -140
-3 85 c-4 105 12 184 41 205 26 18 57 19 81 2z m26 -316 c-6 -22 -17 -47 -26
-56 -15 -14 -75 -21 -86 -9 -3 3 22 64 56 135 l61 131 3 -81 c2 -45 -2 -99 -8
-120z"/>
<path d="M11949 10277 c-34 -18 -51 -36 -74 -82 -29 -56 -30 -64 -30 -184 0
-115 2 -131 26 -182 35 -73 75 -102 151 -107 72 -5 109 9 152 60 46 53 61 113
60 238 0 113 -19 176 -67 229 -51 55 -144 67 -218 28z m125 -73 c26 -10 19
-35 -48 -170 l-65 -129 0 108 c-1 114 12 166 46 186 21 12 44 14 67 5z m36
-314 c-6 -25 -19 -53 -27 -62 -17 -19 -78 -25 -88 -9 -3 6 23 67 57 136 l63
126 3 -73 c2 -40 -2 -93 -8 -118z"/>
<path d="M6763 10234 l-92 -56 27 -43 26 -44 36 21 c19 12 45 28 58 36 l22 14
0 -166 0 -166 -65 0 -65 0 0 -50 0 -50 181 0 180 0 -3 48 -3 47 -52 3 -53 3 0
230 0 229 -52 0 c-46 -1 -65 -8 -145 -56z"/>
<path d="M8242 10234 c-89 -54 -93 -57 -79 -77 8 -12 19 -32 26 -45 12 -23 13
-23 38 -6 15 9 41 25 60 36 l33 20 0 -166 0 -165 -67 -3 -68 -3 -3 -47 -3 -48
180 0 181 0 0 50 0 50 -50 0 -50 0 0 230 0 230 -52 0 c-46 0 -65 -7 -146 -56z"/>
<path d="M9722 10234 c-89 -54 -93 -57 -79 -77 8 -12 19 -32 26 -45 12 -23 13
-23 38 -6 15 9 41 25 60 36 l33 20 0 -166 0 -165 -67 -3 -68 -3 -3 -47 -3 -48
180 0 181 0 0 50 0 50 -50 0 -50 0 0 230 0 230 -52 0 c-46 0 -65 -7 -146 -56z"/>
<path d="M11203 10237 c-45 -29 -84 -55 -88 -59 -4 -3 6 -24 20 -47 l27 -40
54 34 c30 19 57 35 59 35 3 0 5 -74 5 -165 l0 -165 -70 0 -70 0 0 -50 0 -50
180 0 180 0 0 50 0 50 -50 0 -50 0 0 230 0 230 -57 -1 c-52 0 -66 -6 -140 -52z"/>
<path d="M12686 10240 c-44 -28 -84 -54 -90 -60 -6 -6 0 -24 17 -49 l27 -41
55 35 55 36 0 -166 0 -165 -65 0 -65 0 0 -50 0 -50 180 0 180 0 0 50 0 50 -50
0 -50 0 -2 228 -3 227 -55 2 c-51 3 -61 -1 -134 -47z"/>
<path d="M6784 9541 c-79 -36 -114 -118 -114 -271 0 -195 64 -290 195 -290
133 0 200 99 199 295 -1 154 -38 233 -126 270 -49 20 -104 19 -154 -4z m121
-85 c18 -13 16 -20 -46 -151 l-64 -138 -9 42 c-14 66 6 206 35 237 25 27 56
31 84 10z m40 -252 c-9 -94 -32 -134 -79 -134 -19 0 -37 4 -40 9 -3 5 22 67
56 137 58 120 63 127 66 94 2 -19 1 -67 -3 -106z"/>
<path d="M8265 9544 c-69 -36 -100 -88 -117 -199 -9 -57 -9 -93 0 -150 23
-148 83 -215 192 -215 97 0 151 43 185 147 13 41 16 78 13 165 -3 102 -6 118
-33 168 -23 42 -40 60 -75 78 -52 26 -122 29 -165 6z m120 -88 c18 -13 15 -20
-48 -150 -36 -75 -69 -136 -73 -136 -14 0 3 225 19 257 23 44 65 56 102 29z
m30 -314 c-3 -18 -15 -42 -26 -53 -21 -21 -74 -26 -85 -8 -4 7 20 66 52 131
l59 120 3 -79 c2 -43 0 -93 -3 -111z"/>
<path d="M9745 9544 c-69 -36 -100 -88 -117 -199 -9 -57 -9 -93 0 -150 23
-148 83 -215 192 -215 97 0 151 43 185 147 13 41 16 78 13 165 -3 102 -6 118
-33 168 -23 42 -40 60 -75 78 -52 26 -122 29 -165 6z m120 -88 c18 -13 15 -20
-48 -150 -36 -75 -69 -136 -73 -136 -14 0 3 225 19 257 23 44 65 56 102 29z
m30 -314 c-3 -18 -15 -42 -26 -53 -21 -21 -74 -26 -85 -8 -4 7 20 66 52 131
l59 120 3 -79 c2 -43 0 -93 -3 -111z"/>
<path d="M11221 9542 c-101 -51 -149 -230 -106 -397 21 -78 46 -116 95 -144
34 -19 53 -23 104 -19 79 5 116 30 153 106 26 53 28 66 28 177 0 135 -11 178
-58 232 -55 63 -146 82 -216 45z m123 -85 c15 -11 11 -23 -51 -152 l-68 -140
-3 85 c-4 105 12 184 41 205 26 18 57 19 81 2z m26 -316 c-6 -22 -17 -47 -26
-56 -15 -14 -75 -21 -86 -9 -3 3 22 64 56 135 l61 131 3 -81 c2 -45 -2 -99 -8
-120z"/>
<path d="M6036 9500 c-44 -28 -84 -54 -90 -60 -6 -6 0 -24 17 -49 l27 -41 55
35 55 36 0 -166 0 -165 -65 0 -65 0 0 -50 0 -50 180 0 180 0 0 50 0 50 -50 0
-50 0 -2 228 -3 227 -55 2 c-51 3 -61 -1 -134 -47z"/>
<path d="M7503 9494 l-92 -56 27 -43 26 -44 36 21 c19 12 45 28 58 36 l22 14
0 -166 0 -166 -65 0 -65 0 0 -50 0 -50 181 0 180 0 -3 48 -3 47 -52 3 -53 3 0
230 0 229 -52 0 c-46 -1 -65 -8 -145 -56z"/>
<path d="M8982 9494 c-89 -54 -93 -57 -79 -77 8 -12 19 -32 26 -45 12 -23 13
-23 38 -6 15 9 41 25 60 36 l33 20 0 -166 0 -165 -67 -3 -68 -3 -3 -47 -3 -48
180 0 181 0 0 50 0 50 -50 0 -50 0 0 230 0 230 -52 0 c-46 0 -65 -7 -146 -56z"/>
<path d="M10463 9497 c-45 -29 -84 -55 -88 -59 -4 -3 6 -24 20 -47 l27 -40 54
34 c30 19 57 35 59 35 3 0 5 -74 5 -165 l0 -165 -70 0 -70 0 0 -50 0 -50 180
0 180 0 0 50 0 50 -50 0 -50 0 0 230 0 230 -57 -1 c-52 0 -66 -6 -140 -52z"/>
<path d="M11946 9500 c-44 -28 -84 -54 -90 -60 -6 -6 0 -24 17 -49 l27 -41 55
35 55 36 0 -166 0 -165 -65 0 -65 0 0 -50 0 -50 180 0 180 0 0 50 0 50 -50 0
-50 0 -2 228 -3 227 -55 2 c-51 3 -61 -1 -134 -47z"/>
<path d="M6039 8807 c-34 -18 -51 -36 -74 -82 -29 -56 -30 -64 -30 -184 0
-115 2 -131 26 -182 35 -73 75 -102 151 -107 72 -5 109 9 152 60 46 53 61 113
60 238 0 113 -19 176 -67 229 -51 55 -144 67 -218 28z m125 -73 c26 -10 19
-35 -48 -170 l-65 -129 0 108 c-1 114 12 166 46 186 21 12 44 14 67 5z m36
-314 c-6 -25 -19 -53 -27 -62 -17 -19 -78 -25 -88 -9 -3 6 23 67 57 136 l63
126 3 -73 c2 -40 -2 -93 -8 -118z"/>
<path d="M7524 8811 c-79 -36 -114 -118 -114 -271 0 -195 64 -290 195 -290
133 0 200 99 199 295 -1 154 -38 233 -126 270 -49 20 -104 19 -154 -4z m121
-85 c18 -13 16 -20 -46 -151 l-64 -138 -9 42 c-14 66 6 206 35 237 25 27 56
31 84 10z m40 -252 c-9 -94 -32 -134 -79 -134 -19 0 -37 4 -40 9 -3 5 22 67
56 137 58 120 63 127 66 94 2 -19 1 -67 -3 -106z"/>
<path d="M9005 8814 c-69 -36 -100 -88 -117 -199 -9 -57 -9 -93 0 -150 23
-148 83 -215 192 -215 97 0 151 43 185 147 13 41 16 78 13 165 -3 102 -6 118
-33 168 -23 42 -40 60 -75 78 -52 26 -122 29 -165 6z m120 -88 c18 -13 15 -20
-48 -150 -36 -75 -69 -136 -73 -136 -14 0 3 225 19 257 23 44 65 56 102 29z
m30 -314 c-3 -18 -15 -42 -26 -53 -21 -21 -74 -26 -85 -8 -4 7 20 66 52 131
l59 120 3 -79 c2 -43 0 -93 -3 -111z"/>
<path d="M10481 8812 c-101 -51 -149 -230 -106 -397 21 -78 46 -116 95 -144
34 -19 53 -23 104 -19 79 5 116 30 153 106 26 53 28 66 28 177 0 135 -11 178
-58 232 -55 63 -146 82 -216 45z m123 -85 c15 -11 11 -23 -51 -152 l-68 -140
-3 85 c-4 105 12 184 41 205 26 18 57 19 81 2z m26 -316 c-6 -22 -17 -47 -26
-56 -15 -14 -75 -21 -86 -9 -3 3 22 64 56 135 l61 131 3 -81 c2 -45 -2 -99 -8
-120z"/>
<path d="M5296 8770 c-44 -28 -84 -54 -90 -60 -6 -6 0 -24 17 -49 l27 -41 55
35 55 36 0 -166 0 -165 -65 0 -65 0 0 -50 0 -50 180 0 180 0 0 50 0 50 -50 0
-50 0 -2 228 -3 227 -55 2 c-51 3 -61 -1 -134 -47z"/>
<path d="M6763 8764 l-92 -56 27 -43 26 -44 36 21 c19 12 45 28 58 36 l22 14
0 -166 0 -166 -65 0 -65 0 0 -50 0 -50 181 0 180 0 -3 48 -3 47 -52 3 -53 3 0
230 0 229 -52 0 c-46 -1 -65 -8 -145 -56z"/>
<path d="M8242 8764 c-89 -54 -93 -57 -79 -77 8 -12 19 -32 26 -45 12 -23 13
-23 38 -6 15 9 41 25 60 36 l33 20 0 -166 0 -165 -67 -3 -68 -3 -3 -47 -3 -48
180 0 181 0 0 50 0 50 -50 0 -50 0 0 230 0 230 -52 0 c-46 0 -65 -7 -146 -56z"/>
<path d="M9722 8764 c-89 -54 -93 -57 -79 -77 8 -12 19 -32 26 -45 12 -23 13
-23 38 -6 15 9 41 25 60 36 l33 20 0 -166 0 -165 -67 -3 -68 -3 -3 -47 -3 -48
180 0 181 0 0 50 0 50 -50 0 -50 0 0 230 0 230 -52 0 c-46 0 -65 -7 -146 -56z"/>
<path d="M11203 8767 c-45 -29 -84 -55 -88 -59 -4 -3 6 -24 20 -47 l27 -40 54
34 c30 19 57 35 59 35 3 0 5 -74 5 -165 l0 -165 -70 0 -70 0 0 -50 0 -50 180
0 180 0 0 50 0 50 -50 0 -50 0 0 230 0 230 -57 -1 c-52 0 -66 -6 -140 -52z"/>
<path d="M5299 8067 c-34 -18 -51 -36 -74 -82 -29 -56 -30 -64 -30 -184 0
-115 2 -131 26 -182 35 -73 75 -102 151 -107 72 -5 109 9 152 60 46 53 61 113
60 238 0 113 -19 176 -67 229 -51 55 -144 67 -218 28z m125 -73 c26 -10 19
-35 -48 -170 l-65 -129 0 108 c-1 114 12 166 46 186 21 12 44 14 67 5z m36
-314 c-6 -25 -19 -53 -27 -62 -17 -19 -78 -25 -88 -9 -3 6 23 67 57 136 l63
126 3 -73 c2 -40 -2 -93 -8 -118z"/>
<path d="M6784 8071 c-79 -36 -114 -118 -114 -271 0 -195 64 -290 195 -290
133 0 200 99 199 295 -1 154 -38 233 -126 270 -49 20 -104 19 -154 -4z m121
-85 c18 -13 16 -20 -46 -151 l-64 -138 -9 42 c-14 66 6 206 35 237 25 27 56
31 84 10z m40 -252 c-9 -94 -32 -134 -79 -134 -19 0 -37 4 -40 9 -3 5 22 67
56 137 58 120 63 127 66 94 2 -19 1 -67 -3 -106z"/>
<path d="M8265 8074 c-69 -36 -100 -88 -117 -199 -9 -57 -9 -93 0 -150 23
-148 83 -215 192 -215 97 0 151 43 185 147 13 41 16 78 13 165 -3 102 -6 118
-33 168 -23 42 -40 60 -75 78 -52 26 -122 29 -165 6z m120 -88 c18 -13 15 -20
-48 -150 -36 -75 -69 -136 -73 -136 -14 0 3 225 19 257 23 44 65 56 102 29z
m30 -314 c-3 -18 -15 -42 -26 -53 -21 -21 -74 -26 -85 -8 -4 7 20 66 52 131
l59 120 3 -79 c2 -43 0 -93 -3 -111z"/>
<path d="M9745 8074 c-69 -36 -100 -88 -117 -199 -9 -57 -9 -93 0 -150 23
-148 83 -215 192 -215 97 0 151 43 185 147 13 41 16 78 13 165 -3 102 -6 118
-33 168 -23 42 -40 60 -75 78 -52 26 -122 29 -165 6z m120 -88 c18 -13 15 -20
-48 -150 -36 -75 -69 -136 -73 -136 -14 0 3 225 19 257 23 44 65 56 102 29z
m30 -314 c-3 -18 -15 -42 -26 -53 -21 -21 -74 -26 -85 -8 -4 7 20 66 52 131
l59 120 3 -79 c2 -43 0 -93 -3 -111z"/>
<path d="M4556 8030 c-44 -28 -84 -54 -90 -60 -6 -6 0 -24 17 -49 l27 -41 55
35 55 36 0 -166 0 -165 -65 0 -65 0 0 -50 0 -50 180 0 180 0 0 50 0 50 -50 0
-50 0 -2 228 -3 227 -55 2 c-51 3 -61 -1 -134 -47z"/>
<path d="M6036 8030 c-44 -28 -84 -54 -90 -60 -6 -6 0 -24 17 -49 l27 -41 55
35 55 36 0 -166 0 -165 -65 0 -65 0 0 -50 0 -50 180 0 180 0 0 50 0 50 -50 0
-50 0 -2 228 -3 227 -55 2 c-51 3 -61 -1 -134 -47z"/>
<path d="M7503 8024 l-92 -56 27 -43 26 -44 36 21 c19 12 45 28 58 36 l22 14
0 -166 0 -166 -65 0 -65 0 0 -50 0 -50 181 0 180 0 -3 48 -3 47 -52 3 -53 3 0
230 0 229 -52 0 c-46 -1 -65 -8 -145 -56z"/>
<path d="M8982 8024 c-89 -54 -93 -57 -79 -77 8 -12 19 -32 26 -45 12 -23 13
-23 38 -6 15 9 41 25 60 36 l33 20 0 -166 0 -165 -67 -3 -68 -3 -3 -47 -3 -48
180 0 181 0 0 50 0 50 -50 0 -50 0 0 230 0 230 -52 0 c-46 0 -65 -7 -146 -56z"/>
<path d="M10463 8027 c-45 -29 -84 -55 -88 -59 -4 -3 6 -24 20 -47 l27 -40 54
34 c30 19 57 35 59 35 3 0 5 -74 5 -165 l0 -165 -70 0 -70 0 0 -50 0 -50 180
0 180 0 0 50 0 50 -50 0 -50 0 0 230 0 230 -57 -1 c-52 0 -66 -6 -140 -52z"/>
<path d="M4559 7337 c-34 -18 -51 -36 -74 -82 -29 -56 -30 -64 -30 -184 0
-115 2 -131 26 -182 35 -73 75 -102 151 -107 72 -5 109 9 152 60 46 53 61 113
60 238 0 113 -19 176 -67 229 -51 55 -144 67 -218 28z m125 -73 c26 -10 19
-35 -48 -170 l-65 -129 0 108 c-1 114 12 166 46 186 21 12 44 14 67 5z m36
-314 c-6 -25 -19 -53 -27 -62 -17 -19 -78 -25 -88 -9 -3 6 23 67 57 136 l63
126 3 -73 c2 -40 -2 -93 -8 -118z"/>
<path d="M6039 7337 c-34 -18 -51 -36 -74 -82 -29 -56 -30 -64 -30 -184 0
-115 2 -131 26 -182 35 -73 75 -102 151 -107 72 -5 109 9 152 60 46 53 61 113
60 238 0 113 -19 176 -67 229 -51 55 -144 67 -218 28z m125 -73 c26 -10 19
-35 -48 -170 l-65 -129 0 108 c-1 114 12 166 46 186 21 12 44 14 67 5z m36
-314 c-6 -25 -19 -53 -27 -62 -17 -19 -78 -25 -88 -9 -3 6 23 67 57 136 l63
126 3 -73 c2 -40 -2 -93 -8 -118z"/>
<path d="M7524 7341 c-79 -36 -114 -118 -114 -271 0 -195 64 -290 195 -290
133 0 200 99 199 295 -1 154 -38 233 -126 270 -49 20 -104 19 -154 -4z m121
-85 c18 -13 16 -20 -46 -151 l-64 -138 -9 42 c-14 66 6 206 35 237 25 27 56
31 84 10z m40 -252 c-9 -94 -32 -134 -79 -134 -19 0 -37 4 -40 9 -3 5 22 67
56 137 58 120 63 127 66 94 2 -19 1 -67 -3 -106z"/>
<path d="M9005 7344 c-69 -36 -100 -88 -117 -199 -9 -57 -9 -93 0 -150 23
-148 83 -215 192 -215 97 0 151 43 185 147 13 41 16 78 13 165 -3 102 -6 118
-33 168 -23 42 -40 60 -75 78 -52 26 -122 29 -165 6z m120 -88 c18 -13 15 -20
-48 -150 -36 -75 -69 -136 -73 -136 -14 0 3 225 19 257 23 44 65 56 102 29z
m30 -314 c-3 -18 -15 -42 -26 -53 -21 -21 -74 -26 -85 -8 -4 7 20 66 52 131
l59 120 3 -79 c2 -43 0 -93 -3 -111z"/>
<path d="M3813 7297 c-45 -29 -84 -55 -88 -59 -4 -3 6 -24 20 -47 l27 -40 54
34 c30 19 57 35 59 35 3 0 5 -74 5 -165 l0 -165 -70 0 -70 0 0 -50 0 -50 180
0 180 0 0 50 0 50 -50 0 -50 0 0 230 0 230 -57 -1 c-52 0 -66 -6 -140 -52z"/>
<path d="M5296 7300 c-44 -28 -84 -54 -90 -60 -6 -6 0 -24 17 -49 l27 -41 55
35 55 36 0 -166 0 -165 -65 0 -65 0 0 -50 0 -50 180 0 180 0 0 50 0 50 -50 0
-50 0 -2 228 -3 227 -55 2 c-51 3 -61 -1 -134 -47z"/>
<path d="M6763 7294 l-92 -56 27 -43 26 -44 36 21 c19 12 45 28 58 36 l22 14
0 -166 0 -166 -65 0 -65 0 0 -50 0 -50 181 0 180 0 -3 48 -3 47 -52 3 -53 3 0
230 0 229 -52 0 c-46 -1 -65 -8 -145 -56z"/>
<path d="M8242 7294 c-89 -54 -93 -57 -79 -77 8 -12 19 -32 26 -45 12 -23 13
-23 38 -6 15 9 41 25 60 36 l33 20 0 -166 0 -165 -67 -3 -68 -3 -3 -47 -3 -48
180 0 181 0 0 50 0 50 -50 0 -50 0 0 230 0 230 -52 0 c-46 0 -65 -7 -146 -56z"/>
<path d="M9722 7294 c-89 -54 -93 -57 -79 -77 8 -12 19 -32 26 -45 12 -23 13
-23 38 -6 15 9 41 25 60 36 l33 20 0 -166 0 -165 -67 -3 -68 -3 -3 -47 -3 -48
180 0 181 0 0 50 0 50 -50 0 -50 0 0 230 0 230 -52 0 c-46 0 -65 -7 -146 -56z"/>
<path d="M3091 6602 c-101 -51 -149 -230 -106 -397 21 -78 46 -116 95 -144 34
-19 53 -23 104 -19 79 5 116 30 153 106 26 53 28 66 28 177 0 135 -11 178 -58
232 -55 63 -146 82 -216 45z m123 -85 c15 -11 11 -23 -51 -152 l-68 -140 -3
85 c-4 105 12 184 41 205 26 18 57 19 81 2z m26 -316 c-6 -22 -17 -47 -26 -56
-15 -14 -75 -21 -86 -9 -3 3 22 64 56 135 l61 131 3 -81 c2 -45 -2 -99 -8
-120z"/>
<path d="M3831 6602 c-101 -51 -149 -230 -106 -397 21 -78 46 -116 95 -144 34
-19 53 -23 104 -19 79 5 116 30 153 106 26 53 28 66 28 177 0 135 -11 178 -58
232 -55 63 -146 82 -216 45z m123 -85 c15 -11 11 -23 -51 -152 l-68 -140 -3
85 c-4 105 12 184 41 205 26 18 57 19 81 2z m26 -316 c-6 -22 -17 -47 -26 -56
-15 -14 -75 -21 -86 -9 -3 3 22 64 56 135 l61 131 3 -81 c2 -45 -2 -99 -8
-120z"/>
<path d="M5299 6597 c-34 -18 -51 -36 -74 -82 -29 -56 -30 -64 -30 -184 0
-115 2 -131 26 -182 35 -73 75 -102 151 -107 72 -5 109 9 152 60 46 53 61 113
60 238 0 113 -19 176 -67 229 -51 55 -144 67 -218 28z m125 -73 c26 -10 19
-35 -48 -170 l-65 -129 0 108 c-1 114 12 166 46 186 21 12 44 14 67 5z m36
-314 c-6 -25 -19 -53 -27 -62 -17 -19 -78 -25 -88 -9 -3 6 23 67 57 136 l63
126 3 -73 c2 -40 -2 -93 -8 -118z"/>
<path d="M6784 6601 c-79 -36 -114 -118 -114 -271 0 -195 64 -290 195 -290
133 0 200 99 199 295 -1 154 -38 233 -126 270 -49 20 -104 19 -154 -4z m121
-85 c18 -13 16 -20 -46 -151 l-64 -138 -9 42 c-14 66 6 206 35 237 25 27 56
31 84 10z m40 -252 c-9 -94 -32 -134 -79 -134 -19 0 -37 4 -40 9 -3 5 22 67
56 137 58 120 63 127 66 94 2 -19 1 -67 -3 -106z"/>
<path d="M8265 6604 c-69 -36 -100 -88 -117 -199 -9 -57 -9 -93 0 -150 23
-148 83 -215 192 -215 97 0 151 43 185 147 13 41 16 78 13 165 -3 102 -6 118
-33 168 -23 42 -40 60 -75 78 -52 26 -122 29 -165 6z m120 -88 c18 -13 15 -20
-48 -150 -36 -75 -69 -136 -73 -136 -14 0 3 225 19 257 23 44 65 56 102 29z
m30 -314 c-3 -18 -15 -42 -26 -53 -21 -21 -74 -26 -85 -8 -4 7 20 66 52 131
l59 120 3 -79 c2 -43 0 -93 -3 -111z"/>
<path d="M4556 6560 c-44 -28 -84 -54 -90 -60 -6 -6 0 -24 17 -49 l27 -41 55
35 55 36 0 -166 0 -165 -65 0 -65 0 0 -50 0 -50 180 0 180 0 0 50 0 50 -50 0
-50 0 -2 228 -3 227 -55 2 c-51 3 -61 -1 -134 -47z"/>
<path d="M6036 6560 c-44 -28 -84 -54 -90 -60 -6 -6 0 -24 17 -49 l27 -41 55
35 55 36 0 -166 0 -165 -65 0 -65 0 0 -50 0 -50 180 0 180 0 0 50 0 50 -50 0
-50 0 -2 228 -3 227 -55 2 c-51 3 -61 -1 -134 -47z"/>
<path d="M7503 6554 l-92 -56 27 -43 26 -44 36 21 c19 12 45 28 58 36 l22 14
0 -166 0 -166 -65 0 -65 0 0 -50 0 -50 181 0 180 0 -3 48 -3 47 -52 3 -53 3 0
230 0 229 -52 0 c-46 -1 -65 -8 -145 -56z"/>
<path d="M8982 6554 c-89 -54 -93 -57 -79 -77 8 -12 19 -32 26 -45 12 -23 13
-23 38 -6 15 9 41 25 60 36 l33 20 0 -166 0 -165 -67 -3 -68 -3 -3 -47 -3 -48
180 0 181 0 0 50 0 50 -50 0 -50 0 0 230 0 230 -52 0 c-46 0 -65 -7 -146 -56z"/>
<path d="M3091 5872 c-101 -51 -149 -230 -106 -397 21 -78 46 -116 95 -144 34
-19 53 -23 104 -19 79 5 116 30 153 106 26 53 28 66 28 177 0 135 -11 178 -58
232 -55 63 -146 82 -216 45z m123 -85 c15 -11 11 -23 -51 -152 l-68 -140 -3
85 c-4 105 12 184 41 205 26 18 57 19 81 2z m26 -316 c-6 -22 -17 -47 -26 -56
-15 -14 -75 -21 -86 -9 -3 3 22 64 56 135 l61 131 3 -81 c2 -45 -2 -99 -8
-120z"/>
<path d="M3831 5872 c-101 -51 -149 -230 -106 -397 21 -78 46 -116 95 -144 34
-19 53 -23 104 -19 79 5 116 30 153 106 26 53 28 66 28 177 0 135 -11 178 -58
232 -55 63 -146 82 -216 45z m123 -85 c15 -11 11 -23 -51 -152 l-68 -140 -3
85 c-4 105 12 184 41 205 26 18 57 19 81 2z m26 -316 c-6 -22 -17 -47 -26 -56
-15 -14 -75 -21 -86 -9 -3 3 22 64 56 135 l61 131 3 -81 c2 -45 -2 -99 -8
-120z"/>
<path d="M4559 5867 c-34 -18 -51 -36 -74 -82 -29 -56 -30 -64 -30 -184 0
-115 2 -131 26 -182 35 -73 75 -102 151 -107 72 -5 109 9 152 60 46 53 61 113
60 238 0 113 -19 176 -67 229 -51 55 -144 67 -218 28z m125 -73 c26 -10 19
-35 -48 -170 l-65 -129 0 108 c-1 114 12 166 46 186 21 12 44 14 67 5z m36
-314 c-6 -25 -19 -53 -27 -62 -17 -19 -78 -25 -88 -9 -3 6 23 67 57 136 l63
126 3 -73 c2 -40 -2 -93 -8 -118z"/>
<path d="M6039 5867 c-34 -18 -51 -36 -74 -82 -29 -56 -30 -64 -30 -184 0
-115 2 -131 26 -182 35 -73 75 -102 151 -107 72 -5 109 9 152 60 46 53 61 113
60 238 0 113 -19 176 -67 229 -51 55 -144 67 -218 28z m125 -73 c26 -10 19
-35 -48 -170 l-65 -129 0 108 c-1 114 12 166 46 186 21 12 44 14 67 5z m36
-314 c-6 -25 -19 -53 -27 -62 -17 -19 -78 -25 -88 -9 -3 6 23 67 57 136 l63
126 3 -73 c2 -40 -2 -93 -8 -118z"/>
<path d="M7524 5871 c-79 -36 -114 -118 -114 -271 0 -195 64 -290 195 -290
133 0 200 99 199 295 -1 154 -38 233 -126 270 -49 20 -104 19 -154 -4z m121
-85 c18 -13 16 -20 -46 -151 l-64 -138 -9 42 c-14 66 6 206 35 237 25 27 56
31 84 10z m40 -252 c-9 -94 -32 -134 -79 -134 -19 0 -37 4 -40 9 -3 5 22 67
56 137 58 120 63 127 66 94 2 -19 1 -67 -3 -106z"/>
<path d="M5296 5830 c-44 -28 -84 -54 -90 -60 -6 -6 0 -24 17 -49 l27 -41 55
35 55 36 0 -166 0 -165 -65 0 -65 0 0 -50 0 -50 180 0 180 0 0 50 0 50 -50 0
-50 0 -2 228 -3 227 -55 2 c-51 3 -61 -1 -134 -47z"/>
<path d="M6763 5824 l-92 -56 27 -43 26 -44 36 21 c19 12 45 28 58 36 l22 14
0 -166 0 -166 -65 0 -65 0 0 -50 0 -50 181 0 180 0 -3 48 -3 47 -52 3 -53 3 0
230 0 229 -52 0 c-46 -1 -65 -8 -145 -56z"/>
<path d="M8242 5824 c-89 -54 -93 -57 -79 -77 8 -12 19 -32 26 -45 12 -23 13
-23 38 -6 15 9 41 25 60 36 l33 20 0 -166 0 -165 -67 -3 -68 -3 -3 -47 -3 -48
180 0 181 0 0 50 0 50 -50 0 -50 0 0 230 0 230 -52 0 c-46 0 -65 -7 -146 -56z"/>
<path d="M3091 5132 c-101 -51 -149 -230 -106 -397 21 -78 46 -116 95 -144 34
-19 53 -23 104 -19 79 5 116 30 153 106 26 53 28 66 28 177 0 135 -11 178 -58
232 -55 63 -146 82 -216 45z m123 -85 c15 -11 11 -23 -51 -152 l-68 -140 -3
85 c-4 105 12 184 41 205 26 18 57 19 81 2z m26 -316 c-6 -22 -17 -47 -26 -56
-15 -14 -75 -21 -86 -9 -3 3 22 64 56 135 l61 131 3 -81 c2 -45 -2 -99 -8
-120z"/>
<path d="M3831 5132 c-101 -51 -149 -230 -106 -397 21 -78 46 -116 95 -144 34
-19 53 -23 104 -19 79 5 116 30 153 106 26 53 28 66 28 177 0 135 -11 178 -58
232 -55 63 -146 82 -216 45z m123 -85 c15 -11 11 -23 -51 -152 l-68 -140 -3
85 c-4 105 12 184 41 205 26 18 57 19 81 2z m26 -316 c-6 -22 -17 -47 -26 -56
-15 -14 -75 -21 -86 -9 -3 3 22 64 56 135 l61 131 3 -81 c2 -45 -2 -99 -8
-120z"/>
<path d="M4559 5127 c-34 -18 -51 -36 -74 -82 -29 -56 -30 -64 -30 -184 0
-115 2 -131 26 -182 35 -73 75 -102 151 -107 72 -5 109 9 152 60 46 53 61 113
60 238 0 113 -19 176 -67 229 -51 55 -144 67 -218 28z m125 -73 c26 -10 19
-35 -48 -170 l-65 -129 0 108 c-1 114 12 166 46 186 21 12 44 14 67 5z m36
-314 c-6 -25 -19 -53 -27 -62 -17 -19 -78 -25 -88 -9 -3 6 23 67 57 136 l63
126 3 -73 c2 -40 -2 -93 -8 -118z"/>
<path d="M5299 5127 c-34 -18 -51 -36 -74 -82 -29 -56 -30 -64 -30 -184 0
-115 2 -131 26 -182 35 -73 75 -102 151 -107 72 -5 109 9 152 60 46 53 61 113
60 238 0 113 -19 176 -67 229 -51 55 -144 67 -218 28z m125 -73 c26 -10 19
-35 -48 -170 l-65 -129 0 108 c-1 114 12 166 46 186 21 12 44 14 67 5z m36
-314 c-6 -25 -19 -53 -27 -62 -17 -19 -78 -25 -88 -9 -3 6 23 67 57 136 l63
126 3 -73 c2 -40 -2 -93 -8 -118z"/>
<path d="M6784 5131 c-79 -36 -114 -118 -114 -271 0 -195 64 -290 195 -290
133 0 200 99 199 295 -1 154 -38 233 -126 270 -49 20 -104 19 -154 -4z m121
-85 c18 -13 16 -20 -46 -151 l-64 -138 -9 42 c-14 66 6 206 35 237 25 27 56
31 84 10z m40 -252 c-9 -94 -32 -134 -79 -134 -19 0 -37 4 -40 9 -3 5 22 67
56 137 58 120 63 127 66 94 2 -19 1 -67 -3 -106z"/>
<path d="M6036 5090 c-44 -28 -84 -54 -90 -60 -6 -6 0 -24 17 -49 l27 -41 55
35 55 36 0 -166 0 -165 -65 0 -65 0 0 -50 0 -50 180 0 180 0 0 50 0 50 -50 0
-50 0 -2 228 -3 227 -55 2 c-51 3 -61 -1 -134 -47z"/>
<path d="M7503 5084 l-92 -56 27 -43 26 -44 36 21 c19 12 45 28 58 36 l22 14
0 -166 0 -166 -65 0 -65 0 0 -50 0 -50 181 0 180 0 -3 48 -3 47 -52 3 -53 3 0
230 0 229 -52 0 c-46 -1 -65 -8 -145 -56z"/>
<path d="M3831 4402 c-101 -51 -149 -230 -106 -397 21 -78 46 -116 95 -144 34
-19 53 -23 104 -19 79 5 116 30 153 106 26 53 28 66 28 177 0 135 -11 178 -58
232 -55 63 -146 82 -216 45z m123 -85 c15 -11 11 -23 -51 -152 l-68 -140 -3
85 c-4 105 12 184 41 205 26 18 57 19 81 2z m26 -316 c-6 -22 -17 -47 -26 -56
-15 -14 -75 -21 -86 -9 -3 3 22 64 56 135 l61 131 3 -81 c2 -45 -2 -99 -8
-120z"/>
<path d="M4559 4397 c-34 -18 -51 -36 -74 -82 -29 -56 -30 -64 -30 -184 0
-115 2 -131 26 -182 35 -73 75 -102 151 -107 72 -5 109 9 152 60 46 53 61 113
60 238 0 113 -19 176 -67 229 -51 55 -144 67 -218 28z m125 -73 c26 -10 19
-35 -48 -170 l-65 -129 0 108 c-1 114 12 166 46 186 21 12 44 14 67 5z m36
-314 c-6 -25 -19 -53 -27 -62 -17 -19 -78 -25 -88 -9 -3 6 23 67 57 136 l63
126 3 -73 c2 -40 -2 -93 -8 -118z"/>
<path d="M5299 4397 c-34 -18 -51 -36 -74 -82 -29 -56 -30 -64 -30 -184 0
-115 2 -131 26 -182 35 -73 75 -102 151 -107 72 -5 109 9 152 60 46 53 61 113
60 238 0 113 -19 176 -67 229 -51 55 -144 67 -218 28z m125 -73 c26 -10 19
-35 -48 -170 l-65 -129 0 108 c-1 114 12 166 46 186 21 12 44 14 67 5z m36
-314 c-6 -25 -19 -53 -27 -62 -17 -19 -78 -25 -88 -9 -3 6 23 67 57 136 l63
126 3 -73 c2 -40 -2 -93 -8 -118z"/>
<path d="M6039 4397 c-34 -18 -51 -36 -74 -82 -29 -56 -30 -64 -30 -184 0
-115 2 -131 26 -182 35 -73 75 -102 151 -107 72 -5 109 9 152 60 46 53 61 113
60 238 0 113 -19 176 -67 229 -51 55 -144 67 -218 28z m125 -73 c26 -10 19
-35 -48 -170 l-65 -129 0 108 c-1 114 12 166 46 186 21 12 44 14 67 5z m36
-314 c-6 -25 -19 -53 -27 -62 -17 -19 -78 -25 -88 -9 -3 6 23 67 57 136 l63
126 3 -73 c2 -40 -2 -93 -8 -118z"/>
<path d="M3073 4357 c-45 -29 -84 -55 -88 -59 -4 -3 6 -24 20 -47 l27 -40 54
34 c30 19 57 35 59 35 3 0 5 -74 5 -165 l0 -165 -70 0 -70 0 0 -50 0 -50 180
0 180 0 0 50 0 50 -50 0 -50 0 0 230 0 230 -57 -1 c-52 0 -66 -6 -140 -52z"/>
<path d="M6763 4354 l-92 -56 27 -43 26 -44 36 21 c19 12 45 28 58 36 l22 14
0 -166 0 -166 -65 0 -65 0 0 -50 0 -50 181 0 180 0 -3 48 -3 47 -52 3 -53 3 0
230 0 229 -52 0 c-46 -1 -65 -8 -145 -56z"/>
<path d="M4559 3657 c-34 -18 -51 -36 -74 -82 -29 -56 -30 -64 -30 -184 0
-115 2 -131 26 -182 35 -73 75 -102 151 -107 72 -5 109 9 152 60 46 53 61 113
60 238 0 113 -19 176 -67 229 -51 55 -144 67 -218 28z m125 -73 c26 -10 19
-35 -48 -170 l-65 -129 0 108 c-1 114 12 166 46 186 21 12 44 14 67 5z m36
-314 c-6 -25 -19 -53 -27 -62 -17 -19 -78 -25 -88 -9 -3 6 23 67 57 136 l63
126 3 -73 c2 -40 -2 -93 -8 -118z"/>
<path d="M5299 3657 c-34 -18 -51 -36 -74 -82 -29 -56 -30 -64 -30 -184 0
-115 2 -131 26 -182 35 -73 75 -102 151 -107 72 -5 109 9 152 60 46 53 61 113
60 238 0 113 -19 176 -67 229 -51 55 -144 67 -218 28z m125 -73 c26 -10 19
-35 -48 -170 l-65 -129 0 108 c-1 114 12 166 46 186 21 12 44 14 67 5z m36
-314 c-6 -25 -19 -53 -27 -62 -17 -19 -78 -25 -88 -9 -3 6 23 67 57 136 l63
126 3 -73 c2 -40 -2 -93 -8 -118z"/>
<path d="M6039 3657 c-34 -18 -51 -36 -74 -82 -29 -56 -30 -64 -30 -184 0
-115 2 -131 26 -182 35 -73 75 -102 151 -107 72 -5 109 9 152 60 46 53 61 113
60 238 0 113 -19 176 -67 229 -51 55 -144 67 -218 28z m125 -73 c26 -10 19
-35 -48 -170 l-65 -129 0 108 c-1 114 12 166 46 186 21 12 44 14 67 5z m36
-314 c-6 -25 -19 -53 -27 -62 -17 -19 -78 -25 -88 -9 -3 6 23 67 57 136 l63
126 3 -73 c2 -40 -2 -93 -8 -118z"/>
<path d="M3073 3617 c-45 -29 -84 -55 -88 -59 -4 -3 6 -24 20 -47 l27 -40 54
34 c30 19 57 35 59 35 3 0 5 -74 5 -165 l0 -165 -70 0 -70 0 0 -50 0 -50 180
0 180 0 0 50 0 50 -50 0 -50 0 0 230 0 230 -57 -1 c-52 0 -66 -6 -140 -52z"/>
<path d="M3813 3617 c-45 -29 -84 -55 -88 -59 -4 -3 6 -24 20 -47 l27 -40 54
34 c30 19 57 35 59 35 3 0 5 -74 5 -165 l0 -165 -70 0 -70 0 0 -50 0 -50 180
0 180 0 0 50 0 50 -50 0 -50 0 0 230 0 230 -57 -1 c-52 0 -66 -6 -140 -52z"/>
</g>
</svg>
